<svg width="21" height="43" viewBox="0 0 21 43" fill="none" xmlns="http://www.w3.org/2000/svg">
<g clip-path="url(#clip0_117_354)">
<path d="M1.85107 11.801C1.99825 11.4132 2.28812 10.9799 2.49168 10.6191C2.82449 10.0292 3.18804 9.49208 3.55297 8.92584L6.2541 4.71163C6.34285 4.57228 6.43245 4.41875 6.51208 4.27357C6.7422 3.8539 7.02892 3.47653 7.28826 3.07691L8.41226 1.32543C8.59373 1.04723 9.02405 0.312942 9.24861 0.106707C9.47558 0.0308964 12.1466 0.034816 12.4742 0.0848129C12.7007 0.276804 13.1496 1.07096 13.3369 1.36944L14.5002 3.2196L17.237 7.47547C17.8902 8.51671 18.5354 9.56288 19.1726 10.6139C19.3385 10.8868 19.9615 11.7516 19.9345 12.018C19.8647 12.0739 19.1003 12.0126 18.9282 12.0139L16.0234 12.0448C15.6569 12.0451 15.1712 12.0559 14.8146 12.0349C14.5544 12.0196 14.0782 11.1296 13.926 10.9032C13.174 9.78477 12.4846 8.62442 11.7251 7.50974C11.4756 7.14365 11.2759 6.74483 10.9917 6.40286C10.9135 6.30441 10.8568 6.26502 10.7454 6.20844C10.3918 6.64602 10.241 7.00501 9.94897 7.46915L8.1007 10.3913C7.9781 10.5885 7.23462 11.9938 6.99259 12.0148C6.61687 12.0475 5.9082 11.9849 5.48709 12.0035C4.93008 11.9972 4.31908 12.0625 3.77163 12.0098C3.63781 12.0279 3.29367 12.0237 3.14671 12.0169C2.93587 12.0071 1.77142 12.2027 1.85107 11.801Z" fill="#E9393E"/>
<path d="M3.77163 12.0096C3.63781 12.0277 3.29367 12.0235 3.14671 12.0167C2.93587 12.0069 1.77142 12.2025 1.85107 11.8008C1.93325 11.8368 1.96203 11.82 2.02138 11.8404C2.42501 11.9795 2.81145 11.9803 3.23075 11.9877C3.31005 11.9891 3.72145 11.985 3.77163 12.0096Z" fill="#C71711"/>
<path d="M0 23.5024C0.0531285 23.2671 0.0554927 22.7258 0.101103 22.4434C0.290064 21.2739 0.57651 20.2945 1.15902 19.2566C1.37256 18.8762 1.57092 18.6683 1.83084 18.3564C2.81983 17.1695 4.03166 16.3815 5.4823 15.8744C5.71901 15.7948 5.95424 15.671 6.19603 15.6093C8.41166 15.0435 10.7271 14.911 12.9957 15.1498C16.3282 15.5006 19.7754 17.0848 20.7324 20.5758C20.8533 21.0167 20.8845 21.4809 21 21.9065V26.2546C20.9378 26.2848 20.8607 26.321 20.7911 26.3197C20.2883 26.3115 19.7823 26.3046 19.2798 26.3031L16.9775 26.3006C16.4787 26.3019 15.9546 26.3409 15.4553 26.2926C15.3893 26.2861 15.3009 26.2666 15.2809 26.2065C15.2004 25.9651 15.2194 25.529 15.2173 25.2919C15.2111 24.7851 15.2092 24.2785 15.2116 23.7716C15.2128 23.4376 15.2305 23.0292 15.1896 22.709C15.0248 21.4175 14.1103 20.3714 12.871 19.9886C10.2852 19.1899 7.11608 19.6988 6.12378 22.5677C5.74389 23.6658 5.74808 24.4135 5.72899 25.5313C5.71469 26.5074 5.70925 27.4837 5.71271 28.46L5.70428 30.9189C5.69622 32.5625 5.63622 34.4832 6.34531 36.0004C6.71517 36.7915 7.60347 37.6668 8.4167 37.9515C10.8351 38.7979 14.6122 38.421 15.1705 35.36C15.2432 34.9615 15.2163 34.5382 15.2237 34.1353C15.2319 33.3918 15.2119 32.6399 15.243 31.8977C15.2459 31.8295 15.2526 31.523 15.3106 31.5179C15.7824 31.477 16.4737 31.5251 16.9314 31.5146C17.9701 31.4902 18.9719 31.4696 20.0061 31.486C20.2673 31.4902 20.7647 31.4885 21 31.5179V36.3537C20.9519 36.5479 20.9356 36.7489 20.8986 36.9437C20.3787 39.6825 18.1215 41.5851 15.5264 42.3152C15.3263 42.3714 15.1183 42.4737 14.9127 42.5213C13.8682 42.7309 12.8228 42.9196 11.7565 42.9686C11.6169 42.9749 11.2869 42.9713 11.1739 43H9.82928C9.57512 42.9526 9.32421 42.9683 9.06877 42.9455C8.19613 42.868 7.28303 42.7502 6.43494 42.5257C3.22576 41.6746 0.761024 39.3513 0.148844 36.0207C0.0750569 35.6193 0.0748941 35.1696 0 34.8032V23.5024Z" fill="#E9393E"/>
</g>
<defs>
<clipPath id="clip0_117_354">
<rect width="21" height="43" fill="white"/>
</clipPath>
</defs>
</svg>
