<svg width="145" height="45" viewBox="0 0 145 45" fill="none" xmlns="http://www.w3.org/2000/svg">
<path d="M119.212 15.9006C120.008 15.848 120.806 15.8464 121.602 15.8954C125.987 16.1611 130.233 17.0889 131.009 22.1941C131.228 23.6298 131.161 25.4804 131.161 26.9577L131.16 36.2231C131.146 39.0404 130.669 39.1116 133.532 39.1384C133.554 40.7375 133.553 42.3369 133.528 43.936C131.799 43.9747 128.719 44.1186 127.138 43.641C125.632 43.186 125.496 41.9392 124.973 40.8079C124.336 41.9335 123.155 43.1661 121.905 43.6124C118.269 44.9104 111.802 45.0945 110.02 40.8709C109.851 40.3687 109.733 39.851 109.666 39.3254C109.416 37.264 109.41 32.8599 110.333 31.006C112.241 27.1724 123.195 28.5048 125.077 26.1073C125.098 24.9896 125.33 22.5034 124.488 21.7271C122.939 20.3004 118.107 20.3392 116.459 21.7225C115.632 22.4164 115.826 24.8997 115.82 25.9936C115.301 25.9594 114.362 25.9915 113.807 25.9925L109.747 25.9997C109.722 23.3399 109.411 20.7471 111.313 18.5921C113.206 16.4469 116.515 16.0759 119.212 15.9006ZM116.546 38.7578C117.719 39.4823 120.432 39.3969 121.778 39.0825C122.911 38.8182 123.857 38.2424 124.476 37.2475C124.736 36.8324 124.915 36.3719 125.004 35.8905C125.093 35.4159 125.184 31.3269 125.021 31.1928C123.245 32.0081 120.247 31.9348 118.298 32.2866C116.298 32.6479 115.704 33.6755 115.678 35.645C115.663 36.8103 115.559 37.9226 116.546 38.7578Z" fill="#001B37"/>
<path d="M36.7247 15.9021C41.9473 15.5466 47.4847 17.9701 47.7126 23.8193C47.748 24.7261 47.9268 30.8766 47.6581 31.3937C46.9253 31.633 33.7451 31.4829 32.1373 31.4892C32.1012 33.6844 31.7777 36.5034 33.4189 38.2481C35.0811 40.0153 38.7997 40.1633 40.6425 38.6028C41.9781 37.4718 41.6195 35.0919 41.6432 33.4263C43.582 33.4554 45.5815 33.4353 47.5248 33.4362L47.6602 33.4628C47.8025 33.8899 47.6588 35.3248 47.6885 35.8477C48.0914 42.9332 42.5102 44.573 36.5009 44.5033C30.8252 44.4375 26.3627 41.7967 26.1117 35.6195C26.0477 34.0447 26.1325 32.4548 26.0978 30.8778C26.1647 27.986 25.8031 24.761 26.6155 21.9756C26.955 20.8437 27.5499 19.8042 28.3547 18.9367C30.4904 16.5971 33.6959 16.0463 36.7247 15.9021ZM32.1535 26.9425L37.4888 26.9385C38.8759 26.9402 40.2906 26.9267 41.6751 26.944C41.6995 25.5464 41.8052 24.2924 41.2333 22.9655C40.5364 21.3487 39.1133 20.7697 37.421 20.7423C37.1115 20.735 36.8017 20.7399 36.4926 20.7571C32.8332 21.293 31.9416 23.5183 32.1535 26.9425Z" fill="#001B37"/>
<path d="M66.3333 15.829C66.5 15.8252 66.6668 15.8233 66.8335 15.8232C71.9724 15.8237 74.4795 18.3567 74.5566 23.4124C74.5885 25.5106 74.5658 27.6416 74.5658 29.7426L74.5637 43.9413C72.5685 43.9628 70.5732 43.9621 68.578 43.9393C68.6168 42.1862 68.591 40.397 68.5887 38.6411C68.5825 34.1003 68.6162 29.5561 68.5675 25.0161C68.5572 24.0523 68.2015 22.2521 67.4469 21.6458C65.7402 20.2746 61.8817 20.3684 60.4062 22.0387C59.2772 23.3322 59.1689 24.6436 59.1811 26.2724C59.192 27.714 59.1902 29.1679 59.1907 30.61L59.182 43.9209C57.6872 44.0399 54.6533 43.9616 53.1012 43.937C52.9762 34.8319 53.142 25.5839 53.0815 16.459C54.6678 16.3394 57.5247 16.4198 59.1802 16.4355C59.1804 16.7834 59.1459 18.5996 59.2707 18.7615C59.6918 18.5361 60.3609 17.7082 60.8081 17.3606C62.1854 16.2897 64.6558 15.8979 66.3333 15.829Z" fill="#001B37"/>
<path d="M10.3272 15.8962C10.6152 15.8647 10.911 15.8663 11.2023 15.8654C14.336 15.8558 17.8139 16.2946 20.152 18.5829C22.6066 20.9854 22.2281 24.3518 22.2314 27.4965C20.4777 27.559 18.675 27.4907 16.9171 27.5161C16.5025 27.492 16.0949 27.5347 16.106 26.9865C16.1759 23.5331 16.309 20.9209 11.8951 20.7215C8.38097 20.5627 6.52492 22.6825 6.49646 26.1137C6.4771 28.447 6.53568 30.8629 6.49814 33.2043C6.46606 35.0766 6.51242 36.8364 7.92091 38.291C9.6425 39.9807 13.3735 40.0836 15.1272 38.3895C16.3288 37.2338 16.1183 35.6428 16.1123 34.1203C16.1033 33.7627 16.0462 33.071 16.2356 32.7934C16.7503 32.5752 21.5768 32.6101 22.2348 32.7506C22.1952 35.6401 22.6394 38.6446 20.787 41.0765C19.1161 43.2701 16.3105 44.1085 13.6623 44.3768C10.3116 44.6602 6.50921 44.4867 3.7319 42.3797C-0.035759 39.5213 0.47685 35.3782 0.471303 31.2233L0.467373 27.0224C0.468417 24.2923 0.522806 21.6441 2.31755 19.3592C4.38222 16.7306 7.18522 16.2842 10.3272 15.8962Z" fill="#EA3A3E"/>
<path d="M90.6854 14.6107L101.589 14.624C102.482 14.6234 105.71 14.551 106.397 14.6855C106.461 18.1136 106.568 21.5834 105.626 24.909C104.364 29.367 101.8 33.4965 100.928 38.0782C100.604 39.7799 100.664 42.1591 100.706 43.9181C98.9209 43.8994 97.1361 43.8943 95.3512 43.9029C94.6956 43.9022 94.0392 43.9081 93.3836 43.9207C93.356 42.5376 93.3022 40.824 93.4367 39.4555C93.9996 33.9726 97.4688 29.4481 99.008 24.2608C99.4902 22.6344 99.2438 21.5659 99.4838 20.0487C98.6696 20.0854 97.6133 20.0897 96.8047 20.0716C96.9102 21.2513 96.833 23.8737 96.85 25.1689C95.8001 25.2351 94.4513 25.1881 93.3829 25.2062C92.7061 25.2176 90.9976 25.2477 90.4121 25.1288C90.5282 21.7837 90.4156 18.4306 90.4815 15.084C90.4872 14.802 90.4985 14.792 90.6854 14.6107Z" fill="#EA3A3E"/>
<path d="M137.631 5.58941C139.608 5.52878 141.686 5.6059 143.696 5.55957C143.766 7.01888 143.723 8.78816 143.722 10.2646V18.5816L143.724 43.9401C141.689 43.9567 139.654 43.959 137.619 43.9471L137.616 19.2313C137.616 14.7105 137.572 10.1037 137.631 5.58941Z" fill="#001B37"/>
<path d="M80.5718 16.443C82.1571 16.3472 84.9056 16.4074 86.5439 16.4392C86.6366 17.4679 86.5673 19.9067 86.568 21.0234L86.5701 30.1187L86.5715 39.1484C86.5743 40.375 86.6494 42.7969 86.5531 43.9394C84.7328 43.975 82.8382 43.981 81.0144 43.9377C80.7184 43.9307 80.5626 43.8278 80.5506 43.5094C80.4826 41.6501 80.5287 39.7708 80.5265 37.9062L80.5287 24.8862L80.5202 19.3748C80.518 18.7305 80.4777 16.9999 80.5718 16.443Z" fill="#001B37"/>
<path d="M12.8572 0.599116C13.0875 0.608247 13.3845 0.608245 13.5252 0.795103C14.1178 1.63434 15.2392 3.29142 15.6881 4.09657C16.2108 5.0337 21.1158 12.2656 21.1167 12.7504C20.64 12.9421 16.2552 12.8656 15.5098 12.8276C14.3239 11.5147 12.733 8.20004 11.5755 6.91056L11.3684 7.35971C10.8545 8.31261 10.0619 9.44099 9.49638 10.3964C9.15569 10.972 8.34353 12.387 7.93742 12.8168C6.56033 12.927 3.84468 12.8383 2.33984 12.8307C2.69645 11.8271 9.28277 1.4973 9.95446 0.82656C10.3915 0.390158 12.2264 0.603483 12.8572 0.599116Z" fill="#EA3A3E"/>
<path d="M80.5742 6.2925C81.0054 6.24197 82.1509 6.27079 82.6366 6.27168L86.5363 6.26988C86.5993 6.85686 86.5753 8.16544 86.5724 8.81279C86.5682 9.85935 86.6199 11.2681 86.5144 12.2825C84.6304 12.2764 82.4108 12.2307 80.5501 12.3166C80.4892 11.7297 80.4871 6.55707 80.5742 6.2925Z" fill="#001B37"/>
</svg>
